# xmcd CD database file generated by OrangeCD 6.5
#
# Track frame offsets:
#	182
#	11480
#	24300
#	40760
#	56770
#	67485
#	78792
#	89145
#	100452
#	112882
#	125390
#	135450
#	146107
#	158992
#	170705
#	181277
#	192135
#	208490
#	223095
#	234272
#	248822
#	263222
#
# Disc length: 3674 seconds
#
# Revision: 3
# Processed by: cddbd v1.5.2PL0 Copyright (c) Steve Scherf et al.
# Submitted via: OrangeCD 6.5
#
DISCID=450e5816
DTITLE=Jerry Reed - Guitar Man
DYEAR=1996
DGENRE=Country
TTITLE0=Guitar Man
TTITLE1=Folsom Prison Blues
TTITLE2=The Devil Went Down To Georgia
TTITLE3=Down On The Corner
TTITLE4=A Thing Called Love
TTITLE5=U. S. Male
TTITLE6=Honkin'
TTITLE7=Wabash Cannonball
TTITLE8=Tupelo Mississippi Flash
TTITLE9=500 Miles Away From Home
TTITLE10=Struttin'
TTITLE11=Amos Moses
TTITLE12=Sweet Memories
TTITLE13=Sixteen Tons
TTITLE14=When You're Hot, You're Hot
TTITLE15=Blue Moon Of Kentucky
TTITLE16=Don't It Make You Wanna Go Home
TTITLE17=Promises
TTITLE18=Bad, Bad Leroy Brown
TTITLE19=Patches
TTITLE20=Mule Skinner Blues
TTITLE21=Ruby, Don't Take Your Love To Town
EXTD=
EXTT0=
EXTT1=
EXTT2=
EXTT3=
EXTT4=
EXTT5=
EXTT6=
EXTT7=
EXTT8=
EXTT9=
EXTT10=
EXTT11=
EXTT12=
EXTT13=
EXTT14=
EXTT15=
EXTT16=
EXTT17=
EXTT18=
EXTT19=
EXTT20=
EXTT21=
PLAYORDER=
